<mxfile host="app.diagrams.net" modified="2024-02-23T00:42:42.653Z" agent="Mozilla/5.0 (Windows NT 10.0; Win64; x64; rv:122.0) Gecko/20100101 Firefox/122.0" etag="lywDDhA6srxIj0dPqghc" version="23.1.5" type="device">
  <diagram name="Page-1" id="8KCGdaTZu0xnM5j2gwdb">
    <mxGraphModel dx="2049" dy="1077" grid="1" gridSize="10" guides="1" tooltips="1" connect="1" arrows="1" fold="1" page="1" pageScale="1" pageWidth="850" pageHeight="1100" math="0" shadow="0">
      <root>
        <mxCell id="0" />
        <mxCell id="1" parent="0" />
        <mxCell id="TAfyd0bx-zS0r6npaIZt-1" value="&lt;div&gt;conditions:&lt;/div&gt;&lt;div&gt;clear|inclement&lt;br&gt;&lt;/div&gt;" style="rounded=0;whiteSpace=wrap;html=1;fillColor=#dae8fc;strokeColor=#6c8ebf;" vertex="1" parent="1">
          <mxGeometry x="280" y="40" width="120" height="60" as="geometry" />
        </mxCell>
        <mxCell id="TAfyd0bx-zS0r6npaIZt-2" value="&lt;div&gt;range:&lt;/div&gt;&lt;div&gt;far|med|near&lt;br&gt;&lt;/div&gt;" style="rounded=0;whiteSpace=wrap;html=1;fillColor=#dae8fc;strokeColor=#6c8ebf;" vertex="1" parent="1">
          <mxGeometry x="640" y="40" width="120" height="60" as="geometry" />
        </mxCell>
        <mxCell id="TAfyd0bx-zS0r6npaIZt-3" value="&lt;div&gt;altitude:&lt;/div&gt;&lt;div&gt;high|med|low&lt;br&gt;&lt;/div&gt;" style="rounded=0;whiteSpace=wrap;html=1;fillColor=#dae8fc;strokeColor=#6c8ebf;" vertex="1" parent="1">
          <mxGeometry x="1000" y="40" width="120" height="60" as="geometry" />
        </mxCell>
        <mxCell id="TAfyd0bx-zS0r6npaIZt-4" value="&lt;div&gt;camera_reliability:&lt;/div&gt;&lt;div&gt;reliable|not_reliable&lt;br&gt;&lt;/div&gt;" style="rounded=0;whiteSpace=wrap;html=1;" vertex="1" parent="1">
          <mxGeometry x="200" y="200" width="120" height="60" as="geometry" />
        </mxCell>
        <mxCell id="TAfyd0bx-zS0r6npaIZt-5" value="&lt;div&gt;radar_reliability:&lt;/div&gt;&lt;div&gt;reliable|not_reliable&lt;br&gt;&lt;/div&gt;" style="rounded=0;whiteSpace=wrap;html=1;" vertex="1" parent="1">
          <mxGeometry x="360" y="200" width="120" height="60" as="geometry" />
        </mxCell>
        <mxCell id="TAfyd0bx-zS0r6npaIZt-6" value="&lt;div&gt;ir_reliability:&lt;/div&gt;&lt;div&gt;reliable|not_reliable&lt;br&gt;&lt;/div&gt;" style="rounded=0;whiteSpace=wrap;html=1;" vertex="1" parent="1">
          <mxGeometry x="520" y="200" width="120" height="60" as="geometry" />
        </mxCell>
        <mxCell id="TAfyd0bx-zS0r6npaIZt-7" value="&lt;div&gt;size:&lt;/div&gt;&lt;div&gt;large|med|small&lt;br&gt;&lt;/div&gt;" style="rounded=0;whiteSpace=wrap;html=1;" vertex="1" parent="1">
          <mxGeometry x="120" y="520" width="120" height="60" as="geometry" />
        </mxCell>
        <mxCell id="TAfyd0bx-zS0r6npaIZt-8" value="&lt;div&gt;speed:&lt;/div&gt;&lt;div&gt;fast|med|slow&lt;br&gt;&lt;/div&gt;" style="rounded=0;whiteSpace=wrap;html=1;" vertex="1" parent="1">
          <mxGeometry x="600" y="520" width="120" height="60" as="geometry" />
        </mxCell>
        <mxCell id="TAfyd0bx-zS0r6npaIZt-9" value="&lt;div&gt;obj_type:&lt;/div&gt;&lt;div&gt;missile|fighter&lt;/div&gt;&lt;div&gt;bomber|uav&lt;/div&gt;" style="rounded=0;whiteSpace=wrap;html=1;fillColor=#fff2cc;strokeColor=#d6b656;" vertex="1" parent="1">
          <mxGeometry x="600" y="720" width="120" height="60" as="geometry" />
        </mxCell>
        <mxCell id="TAfyd0bx-zS0r6npaIZt-10" value="&lt;div&gt;intent:&lt;/div&gt;&lt;div&gt;cruise|attack&lt;/div&gt;&lt;div&gt;evade/neut&lt;br&gt;&lt;/div&gt;" style="rounded=0;whiteSpace=wrap;html=1;" vertex="1" parent="1">
          <mxGeometry x="950" y="830" width="120" height="60" as="geometry" />
        </mxCell>
        <mxCell id="TAfyd0bx-zS0r6npaIZt-11" value="" style="endArrow=classic;html=1;rounded=0;exitX=0.5;exitY=1;exitDx=0;exitDy=0;entryX=0;entryY=0;entryDx=0;entryDy=0;" edge="1" parent="1" source="TAfyd0bx-zS0r6npaIZt-9" target="TAfyd0bx-zS0r6npaIZt-10">
          <mxGeometry width="50" height="50" relative="1" as="geometry">
            <mxPoint x="560" y="590" as="sourcePoint" />
            <mxPoint x="630" y="720" as="targetPoint" />
          </mxGeometry>
        </mxCell>
        <mxCell id="TAfyd0bx-zS0r6npaIZt-12" value="" style="endArrow=classic;html=1;rounded=0;exitX=0.75;exitY=1;exitDx=0;exitDy=0;entryX=0.25;entryY=0;entryDx=0;entryDy=0;" edge="1" parent="1" source="TAfyd0bx-zS0r6npaIZt-8" target="TAfyd0bx-zS0r6npaIZt-10">
          <mxGeometry width="50" height="50" relative="1" as="geometry">
            <mxPoint x="660" y="680" as="sourcePoint" />
            <mxPoint x="710" y="630" as="targetPoint" />
          </mxGeometry>
        </mxCell>
        <mxCell id="TAfyd0bx-zS0r6npaIZt-13" value="" style="endArrow=classic;html=1;rounded=0;exitX=0.75;exitY=1;exitDx=0;exitDy=0;" edge="1" parent="1" source="TAfyd0bx-zS0r6npaIZt-2" target="TAfyd0bx-zS0r6npaIZt-10">
          <mxGeometry width="50" height="50" relative="1" as="geometry">
            <mxPoint x="730" y="440" as="sourcePoint" />
            <mxPoint x="780" y="390" as="targetPoint" />
          </mxGeometry>
        </mxCell>
        <mxCell id="TAfyd0bx-zS0r6npaIZt-14" value="" style="endArrow=classic;html=1;rounded=0;exitX=0.75;exitY=1;exitDx=0;exitDy=0;entryX=0.75;entryY=0;entryDx=0;entryDy=0;" edge="1" parent="1" source="TAfyd0bx-zS0r6npaIZt-3" target="TAfyd0bx-zS0r6npaIZt-10">
          <mxGeometry width="50" height="50" relative="1" as="geometry">
            <mxPoint x="800" y="440" as="sourcePoint" />
            <mxPoint x="850" y="390" as="targetPoint" />
          </mxGeometry>
        </mxCell>
        <mxCell id="TAfyd0bx-zS0r6npaIZt-15" value="" style="endArrow=classic;html=1;rounded=0;exitX=0.25;exitY=1;exitDx=0;exitDy=0;entryX=0.5;entryY=0;entryDx=0;entryDy=0;" edge="1" parent="1" source="TAfyd0bx-zS0r6npaIZt-8" target="TAfyd0bx-zS0r6npaIZt-9">
          <mxGeometry width="50" height="50" relative="1" as="geometry">
            <mxPoint x="300" y="790" as="sourcePoint" />
            <mxPoint x="350" y="740" as="targetPoint" />
          </mxGeometry>
        </mxCell>
        <mxCell id="TAfyd0bx-zS0r6npaIZt-16" value="" style="endArrow=classic;html=1;rounded=0;exitX=0.75;exitY=1;exitDx=0;exitDy=0;entryX=0.25;entryY=0;entryDx=0;entryDy=0;" edge="1" parent="1" source="TAfyd0bx-zS0r6npaIZt-7" target="TAfyd0bx-zS0r6npaIZt-9">
          <mxGeometry width="50" height="50" relative="1" as="geometry">
            <mxPoint x="250" y="710" as="sourcePoint" />
            <mxPoint x="300" y="660" as="targetPoint" />
          </mxGeometry>
        </mxCell>
        <mxCell id="TAfyd0bx-zS0r6npaIZt-17" value="" style="endArrow=classic;html=1;rounded=0;exitX=0.5;exitY=1;exitDx=0;exitDy=0;" edge="1" parent="1" source="TAfyd0bx-zS0r6npaIZt-4">
          <mxGeometry width="50" height="50" relative="1" as="geometry">
            <mxPoint x="210" y="670" as="sourcePoint" />
            <mxPoint x="180" y="520" as="targetPoint" />
          </mxGeometry>
        </mxCell>
        <mxCell id="TAfyd0bx-zS0r6npaIZt-18" value="" style="endArrow=classic;html=1;rounded=0;exitX=0.25;exitY=1;exitDx=0;exitDy=0;entryX=0.5;entryY=0;entryDx=0;entryDy=0;" edge="1" parent="1" source="TAfyd0bx-zS0r6npaIZt-5" target="TAfyd0bx-zS0r6npaIZt-7">
          <mxGeometry width="50" height="50" relative="1" as="geometry">
            <mxPoint x="160" y="610" as="sourcePoint" />
            <mxPoint x="210" y="560" as="targetPoint" />
          </mxGeometry>
        </mxCell>
        <mxCell id="TAfyd0bx-zS0r6npaIZt-19" value="" style="endArrow=classic;html=1;rounded=0;exitX=0.75;exitY=1;exitDx=0;exitDy=0;entryX=0.5;entryY=0;entryDx=0;entryDy=0;" edge="1" parent="1" source="TAfyd0bx-zS0r6npaIZt-5" target="TAfyd0bx-zS0r6npaIZt-8">
          <mxGeometry width="50" height="50" relative="1" as="geometry">
            <mxPoint x="180" y="660" as="sourcePoint" />
            <mxPoint x="230" y="610" as="targetPoint" />
          </mxGeometry>
        </mxCell>
        <mxCell id="TAfyd0bx-zS0r6npaIZt-20" value="" style="endArrow=classic;html=1;rounded=0;exitX=0.5;exitY=1;exitDx=0;exitDy=0;entryX=0.5;entryY=0;entryDx=0;entryDy=0;" edge="1" parent="1" source="TAfyd0bx-zS0r6npaIZt-6" target="TAfyd0bx-zS0r6npaIZt-8">
          <mxGeometry width="50" height="50" relative="1" as="geometry">
            <mxPoint x="150" y="660" as="sourcePoint" />
            <mxPoint x="200" y="610" as="targetPoint" />
          </mxGeometry>
        </mxCell>
        <mxCell id="TAfyd0bx-zS0r6npaIZt-21" value="" style="endArrow=classic;html=1;rounded=0;exitX=0.5;exitY=1;exitDx=0;exitDy=0;entryX=0.25;entryY=0;entryDx=0;entryDy=0;" edge="1" parent="1" source="TAfyd0bx-zS0r6npaIZt-1" target="TAfyd0bx-zS0r6npaIZt-5">
          <mxGeometry width="50" height="50" relative="1" as="geometry">
            <mxPoint x="370" y="150" as="sourcePoint" />
            <mxPoint x="420" y="100" as="targetPoint" />
          </mxGeometry>
        </mxCell>
        <mxCell id="TAfyd0bx-zS0r6npaIZt-22" value="" style="endArrow=classic;html=1;rounded=0;exitX=0.25;exitY=1;exitDx=0;exitDy=0;entryX=0.25;entryY=0;entryDx=0;entryDy=0;" edge="1" parent="1" source="TAfyd0bx-zS0r6npaIZt-1" target="TAfyd0bx-zS0r6npaIZt-4">
          <mxGeometry width="50" height="50" relative="1" as="geometry">
            <mxPoint x="110" y="220" as="sourcePoint" />
            <mxPoint x="160" y="170" as="targetPoint" />
          </mxGeometry>
        </mxCell>
        <mxCell id="TAfyd0bx-zS0r6npaIZt-23" value="" style="endArrow=classic;html=1;rounded=0;exitX=0.75;exitY=1;exitDx=0;exitDy=0;entryX=0.25;entryY=0;entryDx=0;entryDy=0;" edge="1" parent="1" source="TAfyd0bx-zS0r6npaIZt-1" target="TAfyd0bx-zS0r6npaIZt-6">
          <mxGeometry width="50" height="50" relative="1" as="geometry">
            <mxPoint x="450" y="180" as="sourcePoint" />
            <mxPoint x="500" y="130" as="targetPoint" />
          </mxGeometry>
        </mxCell>
        <mxCell id="TAfyd0bx-zS0r6npaIZt-24" value="" style="endArrow=classic;html=1;rounded=0;exitX=0.327;exitY=1.022;exitDx=0;exitDy=0;exitPerimeter=0;entryX=0.5;entryY=0;entryDx=0;entryDy=0;" edge="1" parent="1" source="TAfyd0bx-zS0r6npaIZt-2" target="TAfyd0bx-zS0r6npaIZt-4">
          <mxGeometry width="50" height="50" relative="1" as="geometry">
            <mxPoint x="440" y="110" as="sourcePoint" />
            <mxPoint x="490" y="60" as="targetPoint" />
          </mxGeometry>
        </mxCell>
        <mxCell id="TAfyd0bx-zS0r6npaIZt-25" value="" style="endArrow=classic;html=1;rounded=0;exitX=0.5;exitY=1;exitDx=0;exitDy=0;entryX=0.5;entryY=0;entryDx=0;entryDy=0;" edge="1" parent="1" source="TAfyd0bx-zS0r6npaIZt-2" target="TAfyd0bx-zS0r6npaIZt-5">
          <mxGeometry width="50" height="50" relative="1" as="geometry">
            <mxPoint x="750" y="190" as="sourcePoint" />
            <mxPoint x="800" y="140" as="targetPoint" />
          </mxGeometry>
        </mxCell>
        <mxCell id="TAfyd0bx-zS0r6npaIZt-26" value="" style="endArrow=classic;html=1;rounded=0;exitX=0.75;exitY=1;exitDx=0;exitDy=0;entryX=0.5;entryY=0;entryDx=0;entryDy=0;" edge="1" parent="1" source="TAfyd0bx-zS0r6npaIZt-2" target="TAfyd0bx-zS0r6npaIZt-6">
          <mxGeometry width="50" height="50" relative="1" as="geometry">
            <mxPoint x="830" y="170" as="sourcePoint" />
            <mxPoint x="880" y="120" as="targetPoint" />
          </mxGeometry>
        </mxCell>
        <mxCell id="TAfyd0bx-zS0r6npaIZt-27" value="" style="endArrow=classic;html=1;rounded=0;exitX=0.25;exitY=1;exitDx=0;exitDy=0;entryX=0.75;entryY=0;entryDx=0;entryDy=0;" edge="1" parent="1" source="TAfyd0bx-zS0r6npaIZt-3" target="TAfyd0bx-zS0r6npaIZt-4">
          <mxGeometry width="50" height="50" relative="1" as="geometry">
            <mxPoint x="780" y="210" as="sourcePoint" />
            <mxPoint x="830" y="160" as="targetPoint" />
          </mxGeometry>
        </mxCell>
        <mxCell id="TAfyd0bx-zS0r6npaIZt-28" value="" style="endArrow=classic;html=1;rounded=0;exitX=0.5;exitY=1;exitDx=0;exitDy=0;entryX=0.75;entryY=0;entryDx=0;entryDy=0;" edge="1" parent="1" source="TAfyd0bx-zS0r6npaIZt-3" target="TAfyd0bx-zS0r6npaIZt-5">
          <mxGeometry width="50" height="50" relative="1" as="geometry">
            <mxPoint x="850" y="250" as="sourcePoint" />
            <mxPoint x="900" y="200" as="targetPoint" />
          </mxGeometry>
        </mxCell>
        <mxCell id="TAfyd0bx-zS0r6npaIZt-29" value="" style="endArrow=classic;html=1;rounded=0;exitX=0.75;exitY=1;exitDx=0;exitDy=0;entryX=0.75;entryY=0;entryDx=0;entryDy=0;" edge="1" parent="1" source="TAfyd0bx-zS0r6npaIZt-3" target="TAfyd0bx-zS0r6npaIZt-6">
          <mxGeometry width="50" height="50" relative="1" as="geometry">
            <mxPoint x="880" y="350" as="sourcePoint" />
            <mxPoint x="930" y="300" as="targetPoint" />
          </mxGeometry>
        </mxCell>
        <mxCell id="TAfyd0bx-zS0r6npaIZt-30" value="&lt;div&gt;cam_size:&lt;/div&gt;&lt;div&gt;large|med|sm&lt;br&gt;&lt;/div&gt;" style="rounded=0;whiteSpace=wrap;html=1;fillColor=#dae8fc;strokeColor=#6c8ebf;" vertex="1" parent="1">
          <mxGeometry x="40" y="360" width="120" height="60" as="geometry" />
        </mxCell>
        <mxCell id="TAfyd0bx-zS0r6npaIZt-31" value="&lt;div&gt;rad_size:&lt;/div&gt;&lt;div&gt;large|med|sm&lt;br&gt;&lt;/div&gt;" style="rounded=0;whiteSpace=wrap;html=1;fillColor=#dae8fc;strokeColor=#6c8ebf;" vertex="1" parent="1">
          <mxGeometry x="280" y="440" width="120" height="60" as="geometry" />
        </mxCell>
        <mxCell id="TAfyd0bx-zS0r6npaIZt-32" value="&lt;div&gt;rad_speed:&lt;/div&gt;fast|med|slow" style="rounded=0;whiteSpace=wrap;html=1;fillColor=#dae8fc;strokeColor=#6c8ebf;" vertex="1" parent="1">
          <mxGeometry x="440" y="440" width="120" height="60" as="geometry" />
        </mxCell>
        <mxCell id="TAfyd0bx-zS0r6npaIZt-33" value="&lt;div&gt;ir_speed:&lt;/div&gt;&lt;div&gt;fast|med|slow&lt;br&gt;&lt;/div&gt;" style="rounded=0;whiteSpace=wrap;html=1;fillColor=#dae8fc;strokeColor=#6c8ebf;" vertex="1" parent="1">
          <mxGeometry x="680" y="360" width="120" height="60" as="geometry" />
        </mxCell>
        <mxCell id="TAfyd0bx-zS0r6npaIZt-34" value="" style="endArrow=classic;html=1;rounded=0;exitX=0.5;exitY=1;exitDx=0;exitDy=0;entryX=0.25;entryY=0;entryDx=0;entryDy=0;" edge="1" parent="1" source="TAfyd0bx-zS0r6npaIZt-30" target="TAfyd0bx-zS0r6npaIZt-7">
          <mxGeometry width="50" height="50" relative="1" as="geometry">
            <mxPoint x="40" y="530" as="sourcePoint" />
            <mxPoint x="90" y="480" as="targetPoint" />
          </mxGeometry>
        </mxCell>
        <mxCell id="TAfyd0bx-zS0r6npaIZt-35" value="" style="endArrow=classic;html=1;rounded=0;exitX=0;exitY=1;exitDx=0;exitDy=0;entryX=0.75;entryY=0;entryDx=0;entryDy=0;" edge="1" parent="1" source="TAfyd0bx-zS0r6npaIZt-31" target="TAfyd0bx-zS0r6npaIZt-7">
          <mxGeometry width="50" height="50" relative="1" as="geometry">
            <mxPoint x="380" y="600" as="sourcePoint" />
            <mxPoint x="430" y="550" as="targetPoint" />
          </mxGeometry>
        </mxCell>
        <mxCell id="TAfyd0bx-zS0r6npaIZt-36" value="" style="endArrow=classic;html=1;rounded=0;exitX=1;exitY=1;exitDx=0;exitDy=0;entryX=0;entryY=0;entryDx=0;entryDy=0;" edge="1" parent="1" source="TAfyd0bx-zS0r6npaIZt-32" target="TAfyd0bx-zS0r6npaIZt-8">
          <mxGeometry width="50" height="50" relative="1" as="geometry">
            <mxPoint x="420" y="600" as="sourcePoint" />
            <mxPoint x="470" y="550" as="targetPoint" />
          </mxGeometry>
        </mxCell>
        <mxCell id="TAfyd0bx-zS0r6npaIZt-37" value="" style="endArrow=classic;html=1;rounded=0;exitX=0.5;exitY=1;exitDx=0;exitDy=0;entryX=0.75;entryY=0;entryDx=0;entryDy=0;" edge="1" parent="1" source="TAfyd0bx-zS0r6npaIZt-33" target="TAfyd0bx-zS0r6npaIZt-8">
          <mxGeometry width="50" height="50" relative="1" as="geometry">
            <mxPoint x="800" y="550" as="sourcePoint" />
            <mxPoint x="850" y="500" as="targetPoint" />
          </mxGeometry>
        </mxCell>
        <mxCell id="TAfyd0bx-zS0r6npaIZt-38" value="" style="endArrow=classic;html=1;rounded=0;exitX=0.75;exitY=1;exitDx=0;exitDy=0;entryX=0.75;entryY=0;entryDx=0;entryDy=0;" edge="1" parent="1" source="TAfyd0bx-zS0r6npaIZt-3" target="TAfyd0bx-zS0r6npaIZt-9">
          <mxGeometry width="50" height="50" relative="1" as="geometry">
            <mxPoint x="980" y="340" as="sourcePoint" />
            <mxPoint x="1030" y="290" as="targetPoint" />
          </mxGeometry>
        </mxCell>
      </root>
    </mxGraphModel>
  </diagram>
</mxfile>
